<svg xmlns="http://www.w3.org/2000/svg" xmlns:xlink="http://www.w3.org/1999/xlink" width="3000" zoomAndPan="magnify" viewBox="0 0 2250 749.999995" height="1000" preserveAspectRatio="xMidYMid meet" version="1.0"><defs><g/><clipPath id="ca20732e45"><path d="M 1291 401 L 1547 401 L 1547 630 L 1291 630 Z M 1291 401 " clip-rule="nonzero"/></clipPath><clipPath id="e5af2f6617"><path d="M 1352.890625 236.898438 L 1638.386719 479.3125 L 1412.128906 745.773438 L 1126.636719 503.359375 Z M 1352.890625 236.898438 " clip-rule="nonzero"/></clipPath><clipPath id="5b25c7ed32"><path d="M 1352.890625 236.898438 L 1638.386719 479.3125 L 1412.128906 745.773438 L 1126.636719 503.359375 Z M 1352.890625 236.898438 " clip-rule="nonzero"/></clipPath></defs><g fill="#3b3030" fill-opacity="1"><g transform="translate(39.337577, 539.208527)"><g><path d="M 37.53125 -516.046875 L 225.8125 -516.046875 C 278.351562 -516.046875 320.882812 -502.492188 353.40625 -475.390625 C 385.9375 -448.285156 402.203125 -408.878906 402.203125 -357.171875 C 402.203125 -305.460938 385.726562 -264.90625 352.78125 -235.5 C 319.84375 -206.101562 277.519531 -191.40625 225.8125 -191.40625 L 155.125 -191.40625 L 155.125 0 L 37.53125 0 Z M 155.125 -285.234375 L 188.28125 -285.234375 C 214.550781 -285.234375 236.128906 -290.550781 253.015625 -301.1875 C 269.910156 -311.820312 278.359375 -329.234375 278.359375 -353.421875 C 278.359375 -378.023438 269.910156 -395.640625 253.015625 -406.265625 C 236.128906 -416.898438 214.550781 -422.21875 188.28125 -422.21875 L 155.125 -422.21875 Z M 155.125 -285.234375 "/></g></g></g><g fill="#3b3030" fill-opacity="1"><g transform="translate(403.995668, 539.208527)"><g><path d="M 362.171875 -145.125 L 129.484375 -145.125 C 129.484375 -122.601562 136.78125 -105.921875 151.375 -95.078125 C 165.96875 -84.234375 181.8125 -78.8125 198.90625 -78.8125 C 216.84375 -78.8125 231.023438 -81.207031 241.453125 -86 C 251.878906 -90.800781 263.765625 -100.289062 277.109375 -114.46875 L 357.171875 -74.4375 C 323.804688 -18.5625 268.34375 9.375 190.78125 9.375 C 142.40625 9.375 100.910156 -7.195312 66.296875 -40.34375 C 31.691406 -73.5 14.390625 -113.425781 14.390625 -160.125 C 14.390625 -206.832031 31.691406 -246.863281 66.296875 -280.21875 C 100.910156 -313.582031 142.40625 -330.265625 190.78125 -330.265625 C 241.65625 -330.265625 283.039062 -315.566406 314.9375 -286.171875 C 346.84375 -256.773438 362.796875 -214.757812 362.796875 -160.125 C 362.796875 -152.625 362.585938 -147.625 362.171875 -145.125 Z M 132.609375 -206.421875 L 254.578125 -206.421875 C 252.078125 -223.097656 245.507812 -235.921875 234.875 -244.890625 C 224.25 -253.859375 210.59375 -258.34375 193.90625 -258.34375 C 175.5625 -258.34375 160.96875 -253.546875 150.125 -243.953125 C 139.28125 -234.359375 133.441406 -221.847656 132.609375 -206.421875 Z M 132.609375 -206.421875 "/></g></g></g><g fill="#3b3030" fill-opacity="1"><g transform="translate(729.247461, 539.208527)"><g><path d="M 37.53125 0 L 37.53125 -320.890625 L 148.25 -320.890625 L 148.25 -274.59375 L 149.5 -274.59375 C 150.332031 -276.269531 151.6875 -278.359375 153.5625 -280.859375 C 155.4375 -283.359375 159.5 -287.734375 165.75 -293.984375 C 172.007812 -300.242188 178.679688 -305.875 185.765625 -310.875 C 192.859375 -315.882812 202.035156 -320.367188 213.296875 -324.328125 C 224.554688 -328.285156 236.023438 -330.265625 247.703125 -330.265625 C 259.796875 -330.265625 271.679688 -328.597656 283.359375 -325.265625 C 295.035156 -321.929688 303.582031 -318.597656 309 -315.265625 L 317.765625 -310.25 L 271.46875 -216.421875 C 257.707031 -228.097656 238.523438 -233.9375 213.921875 -233.9375 C 200.578125 -233.9375 189.109375 -231.015625 179.515625 -225.171875 C 169.929688 -219.335938 163.15625 -212.25 159.1875 -203.90625 C 155.226562 -195.570312 152.414062 -188.484375 150.75 -182.640625 C 149.082031 -176.804688 148.25 -172.222656 148.25 -168.890625 L 148.25 0 Z M 37.53125 0 "/></g></g></g><g fill="#3b3030" fill-opacity="1"><g transform="translate(988.822405, 539.208527)"><g><path d="M 312.125 -106.34375 C 330.0625 -106.34375 347.472656 -109.050781 364.359375 -114.46875 C 381.253906 -119.882812 393.660156 -125.097656 401.578125 -130.109375 L 413.46875 -138.234375 L 463.5 -38.15625 C 461.832031 -36.90625 459.539062 -35.238281 456.625 -33.15625 C 453.707031 -31.070312 446.929688 -27.210938 436.296875 -21.578125 C 425.660156 -15.953125 414.296875 -11.050781 402.203125 -6.875 C 390.109375 -2.707031 374.257812 1.039062 354.65625 4.375 C 335.0625 7.707031 314.84375 9.375 294 9.375 C 246.039062 9.375 200.582031 -2.398438 157.625 -25.953125 C 114.675781 -49.515625 80.066406 -81.9375 53.796875 -123.21875 C 27.523438 -164.507812 14.390625 -209.132812 14.390625 -257.09375 C 14.390625 -293.363281 22.101562 -328.179688 37.53125 -361.546875 C 52.957031 -394.910156 73.492188 -423.472656 99.140625 -447.234375 C 124.785156 -471.003906 154.707031 -489.976562 188.90625 -504.15625 C 223.101562 -518.34375 258.132812 -525.4375 294 -525.4375 C 327.351562 -525.4375 358.101562 -521.472656 386.25 -513.546875 C 414.40625 -505.617188 434.320312 -497.695312 446 -489.78125 L 463.5 -477.890625 L 413.46875 -377.8125 C 410.550781 -380.3125 406.171875 -383.332031 400.328125 -386.875 C 394.492188 -390.425781 382.816406 -395.117188 365.296875 -400.953125 C 347.785156 -406.796875 330.0625 -409.71875 312.125 -409.71875 C 283.769531 -409.71875 258.332031 -405.128906 235.8125 -395.953125 C 213.300781 -386.773438 195.476562 -374.679688 182.34375 -359.671875 C 169.207031 -344.660156 159.195312 -328.5 152.3125 -311.1875 C 145.425781 -293.882812 141.984375 -276.269531 141.984375 -258.34375 C 141.984375 -219.144531 156.679688 -184.007812 186.078125 -152.9375 C 215.484375 -121.875 257.5 -106.34375 312.125 -106.34375 Z M 312.125 -106.34375 "/></g></g></g><g fill="#3b3030" fill-opacity="1"><g transform="translate(1407.89841, 539.208527)"><g><path d="M 59.421875 -39.71875 C 29.398438 -72.457031 14.390625 -112.59375 14.390625 -160.125 C 14.390625 -207.664062 29.398438 -247.90625 59.421875 -280.84375 C 89.453125 -313.789062 127.609375 -330.265625 173.890625 -330.265625 C 216.429688 -330.265625 251.460938 -316.921875 278.984375 -290.234375 L 278.984375 -320.890625 L 389.703125 -320.890625 L 389.703125 0 L 280.234375 0 L 280.234375 -36.28125 L 278.984375 -36.28125 C 251.460938 -5.84375 216.429688 9.375 173.890625 9.375 C 127.609375 9.375 89.453125 -6.988281 59.421875 -39.71875 Z M 153.5625 -214.546875 C 139.175781 -200.367188 131.984375 -182.226562 131.984375 -160.125 C 131.984375 -138.03125 138.863281 -119.992188 152.625 -106.015625 C 166.382812 -92.046875 184.523438 -85.0625 207.046875 -85.0625 C 228.734375 -85.0625 246.5625 -92.148438 260.53125 -106.328125 C 274.5 -120.515625 281.484375 -138.445312 281.484375 -160.125 C 281.484375 -182.226562 274.289062 -200.367188 259.90625 -214.546875 C 245.519531 -228.722656 227.898438 -235.8125 207.046875 -235.8125 C 185.773438 -235.8125 167.945312 -228.722656 153.5625 -214.546875 Z M 153.5625 -214.546875 "/></g></g></g><g fill="#3b3030" fill-opacity="1"><g transform="translate(1783.189813, 539.208527)"><g><path d="M 367.796875 -281.15625 C 397.828125 -248.425781 412.84375 -208.289062 412.84375 -160.75 C 412.84375 -113.21875 397.828125 -72.976562 367.796875 -40.03125 C 337.773438 -7.09375 299.617188 9.375 253.328125 9.375 C 210.796875 9.375 175.769531 -3.96875 148.25 -30.65625 L 148.25 162.640625 L 37.53125 162.640625 L 37.53125 -320.890625 L 147 -320.890625 L 147 -284.609375 L 148.25 -284.609375 C 175.769531 -315.046875 210.796875 -330.265625 253.328125 -330.265625 C 299.617188 -330.265625 337.773438 -313.894531 367.796875 -281.15625 Z M 273.65625 -106.328125 C 288.050781 -120.515625 295.25 -138.65625 295.25 -160.75 C 295.25 -182.851562 288.363281 -200.890625 274.59375 -214.859375 C 260.832031 -228.828125 242.695312 -235.8125 220.1875 -235.8125 C 198.5 -235.8125 180.671875 -228.722656 166.703125 -214.546875 C 152.734375 -200.367188 145.75 -182.4375 145.75 -160.75 C 145.75 -138.65625 152.941406 -120.515625 167.328125 -106.328125 C 181.710938 -92.148438 199.332031 -85.0625 220.1875 -85.0625 C 241.445312 -85.0625 259.269531 -92.148438 273.65625 -106.328125 Z M 273.65625 -106.328125 "/></g></g></g><g clip-path="url(#ca20732e45)"><g clip-path="url(#e5af2f6617)"><g clip-path="url(#5b25c7ed32)"><path fill="#ffffff" d="M 1309.859375 573.433594 C 1309.859375 573.433594 1328.015625 497.683594 1422.257812 469.085938 C 1422.257812 469.085938 1358.253906 501.027344 1328.582031 598.503906 C 1328.582031 598.503906 1408.800781 746.144531 1546.390625 401.195312 C 1546.390625 401.195312 1212.21875 403.015625 1309.859375 573.433594 " fill-opacity="1" fill-rule="nonzero"/></g></g></g><g fill="#3b3030" fill-opacity="1"><g transform="translate(85.15581, 661.506024)"><g><path d="M 6.859375 0 L 6.859375 -80.5625 L 39.875 -80.5625 C 45.664062 -80.5625 50.75 -79.507812 55.125 -77.40625 C 59.507812 -75.3125 62.9375 -72.4375 65.40625 -68.78125 C 67.882812 -65.125 69.125 -60.898438 69.125 -56.109375 C 69.125 -51.378906 67.882812 -47.164062 65.40625 -43.46875 C 62.9375 -39.78125 59.492188 -36.90625 55.078125 -34.84375 C 50.660156 -32.789062 45.59375 -31.765625 39.875 -31.765625 L 16.109375 -31.765625 L 16.109375 0 Z M 16.109375 -40.328125 L 39.875 -40.328125 C 43.757812 -40.328125 47.1875 -40.992188 50.15625 -42.328125 C 53.132812 -43.660156 55.457031 -45.523438 57.125 -47.921875 C 58.800781 -50.328125 59.640625 -53.054688 59.640625 -56.109375 C 59.640625 -60.828125 57.8125 -64.671875 54.15625 -67.640625 C 50.5 -70.617188 45.738281 -72.109375 39.875 -72.109375 L 16.109375 -72.109375 Z M 16.109375 -40.328125 "/></g></g></g><g fill="#3b3030" fill-opacity="1"><g transform="translate(158.733227, 661.506024)"><g><path d="M 35.3125 2.28125 C 29.21875 2.28125 23.75 0.910156 18.90625 -1.828125 C 14.070312 -4.566406 10.28125 -8.335938 7.53125 -13.140625 C 4.789062 -17.941406 3.421875 -23.390625 3.421875 -29.484375 C 3.421875 -35.421875 4.675781 -40.675781 7.1875 -45.25 C 9.707031 -49.820312 13.195312 -53.421875 17.65625 -56.046875 C 22.113281 -58.671875 27.195312 -59.984375 32.90625 -59.984375 C 38.539062 -59.984375 43.453125 -58.671875 47.640625 -56.046875 C 51.835938 -53.421875 55.113281 -49.800781 57.46875 -45.1875 C 59.832031 -40.582031 61.050781 -35.304688 61.125 -29.359375 C 61.125 -28.828125 61.125 -28.273438 61.125 -27.703125 C 61.125 -27.140625 61.085938 -26.550781 61.015625 -25.9375 L 12.453125 -25.9375 C 12.910156 -21.976562 14.164062 -18.453125 16.21875 -15.359375 C 18.28125 -12.273438 20.96875 -9.875 24.28125 -8.15625 C 27.59375 -6.445312 31.304688 -5.59375 35.421875 -5.59375 C 39.910156 -5.59375 43.945312 -6.640625 47.53125 -8.734375 C 51.113281 -10.835938 53.703125 -13.445312 55.296875 -16.5625 L 62.84375 -13.484375 C 61.625 -10.429688 59.660156 -7.707031 56.953125 -5.3125 C 54.253906 -2.914062 51.054688 -1.050781 47.359375 0.28125 C 43.671875 1.613281 39.65625 2.28125 35.3125 2.28125 Z M 12.5625 -33.59375 L 51.875 -33.59375 C 51.34375 -39.457031 49.34375 -43.988281 45.875 -47.1875 C 42.40625 -50.382812 38.046875 -51.984375 32.796875 -51.984375 C 27.460938 -51.984375 22.96875 -50.289062 19.3125 -46.90625 C 15.65625 -43.519531 13.40625 -39.082031 12.5625 -33.59375 Z M 12.5625 -33.59375 "/></g></g></g><g fill="#3b3030" fill-opacity="1"><g transform="translate(226.483826, 661.506024)"><g><path d="M 5.71875 0 L 5.71875 -57.703125 L 13.25 -57.703125 L 14.171875 -49.25 L 14.28125 -49.25 C 16.03125 -52.601562 18.675781 -55.226562 22.21875 -57.125 C 25.757812 -59.03125 29.859375 -59.984375 34.515625 -59.984375 C 39.078125 -59.984375 42.898438 -58.972656 45.984375 -56.953125 C 49.078125 -54.941406 51.347656 -52.066406 52.796875 -48.328125 L 52.90625 -48.328125 C 55.5 -52.367188 58.695312 -55.320312 62.5 -57.1875 C 66.3125 -59.050781 70.347656 -59.984375 74.609375 -59.984375 C 80.929688 -59.984375 85.84375 -58.078125 89.34375 -54.265625 C 92.851562 -50.460938 94.609375 -45.171875 94.609375 -38.390625 L 94.609375 0 L 85.8125 0 L 85.8125 -37.828125 C 85.8125 -42.316406 84.59375 -45.796875 82.15625 -48.265625 C 79.71875 -50.742188 76.328125 -51.984375 71.984375 -51.984375 C 66.503906 -51.984375 62.21875 -50.132812 59.125 -46.4375 C 56.039062 -42.75 54.5 -37.972656 54.5 -32.109375 L 54.5 0 L 45.828125 0 L 45.828125 -37.828125 C 45.828125 -42.316406 44.601562 -45.796875 42.15625 -48.265625 C 39.71875 -50.742188 36.289062 -51.984375 31.875 -51.984375 C 26.394531 -51.984375 22.109375 -50.132812 19.015625 -46.4375 C 15.929688 -42.75 14.390625 -37.972656 14.390625 -32.109375 L 14.390625 0 Z M 5.71875 0 "/></g></g></g><g fill="#3b3030" fill-opacity="1"><g transform="translate(328.395108, 661.506024)"><g><path d="M 35.3125 2.28125 C 29.21875 2.28125 23.75 0.910156 18.90625 -1.828125 C 14.070312 -4.566406 10.28125 -8.335938 7.53125 -13.140625 C 4.789062 -17.941406 3.421875 -23.390625 3.421875 -29.484375 C 3.421875 -35.421875 4.675781 -40.675781 7.1875 -45.25 C 9.707031 -49.820312 13.195312 -53.421875 17.65625 -56.046875 C 22.113281 -58.671875 27.195312 -59.984375 32.90625 -59.984375 C 38.539062 -59.984375 43.453125 -58.671875 47.640625 -56.046875 C 51.835938 -53.421875 55.113281 -49.800781 57.46875 -45.1875 C 59.832031 -40.582031 61.050781 -35.304688 61.125 -29.359375 C 61.125 -28.828125 61.125 -28.273438 61.125 -27.703125 C 61.125 -27.140625 61.085938 -26.550781 61.015625 -25.9375 L 12.453125 -25.9375 C 12.910156 -21.976562 14.164062 -18.453125 16.21875 -15.359375 C 18.28125 -12.273438 20.96875 -9.875 24.28125 -8.15625 C 27.59375 -6.445312 31.304688 -5.59375 35.421875 -5.59375 C 39.910156 -5.59375 43.945312 -6.640625 47.53125 -8.734375 C 51.113281 -10.835938 53.703125 -13.445312 55.296875 -16.5625 L 62.84375 -13.484375 C 61.625 -10.429688 59.660156 -7.707031 56.953125 -5.3125 C 54.253906 -2.914062 51.054688 -1.050781 47.359375 0.28125 C 43.671875 1.613281 39.65625 2.28125 35.3125 2.28125 Z M 12.5625 -33.59375 L 51.875 -33.59375 C 51.34375 -39.457031 49.34375 -43.988281 45.875 -47.1875 C 42.40625 -50.382812 38.046875 -51.984375 32.796875 -51.984375 C 27.460938 -51.984375 22.96875 -50.289062 19.3125 -46.90625 C 15.65625 -43.519531 13.40625 -39.082031 12.5625 -33.59375 Z M 12.5625 -33.59375 "/></g></g></g><g fill="#3b3030" fill-opacity="1"><g transform="translate(396.145718, 661.506024)"><g><path d="M 30.859375 2.28125 C 25.441406 2.28125 21.054688 0.625 17.703125 -2.6875 C 14.359375 -6 12.6875 -10.285156 12.6875 -15.546875 L 12.6875 -50.5 L 0 -50.5 L 0 -57.703125 L 12.6875 -57.703125 L 12.6875 -74.84375 L 21.375 -76.90625 L 21.375 -57.703125 L 47.1875 -57.703125 L 47.1875 -50.5 L 21.375 -50.5 L 21.375 -16.453125 C 21.375 -13.179688 22.304688 -10.492188 24.171875 -8.390625 C 26.035156 -6.296875 28.53125 -5.25 31.65625 -5.25 C 34.550781 -5.25 37.195312 -6.257812 39.59375 -8.28125 C 41.988281 -10.300781 43.457031 -13.175781 44 -16.90625 L 51.078125 -13.9375 C 50.546875 -10.582031 49.304688 -7.6875 47.359375 -5.25 C 45.421875 -2.8125 43.003906 -0.945312 40.109375 0.34375 C 37.210938 1.632812 34.128906 2.28125 30.859375 2.28125 Z M 30.859375 2.28125 "/></g></g></g><g fill="#3b3030" fill-opacity="1"><g transform="translate(449.843618, 661.506024)"><g><path d="M 24.5625 2.28125 C 20.21875 2.28125 16.367188 1.554688 13.015625 0.109375 C 9.671875 -1.335938 7.046875 -3.375 5.140625 -6 C 3.234375 -8.625 2.28125 -11.648438 2.28125 -15.078125 C 2.28125 -19.722656 4.28125 -23.757812 8.28125 -27.1875 C 12.28125 -30.625 18.96875 -32.910156 28.34375 -34.046875 L 42.625 -35.765625 C 44.070312 -35.921875 45.210938 -36.394531 46.046875 -37.1875 C 46.890625 -37.988281 47.3125 -39 47.3125 -40.21875 C 47.3125 -43.800781 45.75 -46.675781 42.625 -48.84375 C 39.5 -51.019531 35.421875 -52.109375 30.390625 -52.109375 C 26.816406 -52.109375 23.617188 -51.441406 20.796875 -50.109375 C 17.972656 -48.773438 15.742188 -47.039062 14.109375 -44.90625 C 12.472656 -42.769531 11.578125 -40.5625 11.421875 -38.28125 L 3.546875 -41.59375 C 3.921875 -44.789062 5.304688 -47.78125 7.703125 -50.5625 C 10.109375 -53.34375 13.3125 -55.609375 17.3125 -57.359375 C 21.3125 -59.109375 25.785156 -59.984375 30.734375 -59.984375 C 35.691406 -59.984375 40.054688 -59.125 43.828125 -57.40625 C 47.597656 -55.695312 50.546875 -53.257812 52.671875 -50.09375 C 54.804688 -46.9375 55.875 -43.1875 55.875 -38.84375 L 55.875 -9.59375 C 55.875 -8.457031 56.160156 -7.523438 56.734375 -6.796875 C 57.304688 -6.078125 58.050781 -5.71875 58.96875 -5.71875 C 60.71875 -5.71875 62.273438 -6.859375 63.640625 -9.140625 L 68.328125 -3.65625 C 67.109375 -1.90625 65.410156 -0.476562 63.234375 0.625 C 61.066406 1.726562 58.878906 2.28125 56.671875 2.28125 C 53.859375 2.28125 51.613281 1.390625 49.9375 -0.390625 C 48.257812 -2.179688 47.34375 -4.375 47.1875 -6.96875 L 47.078125 -9.59375 L 46.96875 -9.59375 C 44.90625 -5.9375 41.953125 -3.039062 38.109375 -0.90625 C 34.265625 1.21875 29.75 2.28125 24.5625 2.28125 Z M 26.046875 -5.59375 C 30.085938 -5.59375 33.6875 -6.410156 36.84375 -8.046875 C 40.007812 -9.691406 42.503906 -11.941406 44.328125 -14.796875 C 46.160156 -17.648438 47.078125 -20.945312 47.078125 -24.6875 L 47.078125 -28.796875 L 29.25 -26.625 C 22.320312 -25.78125 17.539062 -24.332031 14.90625 -22.28125 C 12.28125 -20.226562 10.96875 -17.867188 10.96875 -15.203125 C 10.96875 -12.304688 12.375 -9.976562 15.1875 -8.21875 C 18.007812 -6.46875 21.628906 -5.59375 26.046875 -5.59375 Z M 26.046875 -5.59375 "/></g></g></g><g fill="#3b3030" fill-opacity="1"><g transform="translate(520.336274, 661.506024)"><g><path d="M 24.5625 2.28125 C 20.21875 2.28125 16.367188 1.554688 13.015625 0.109375 C 9.671875 -1.335938 7.046875 -3.375 5.140625 -6 C 3.234375 -8.625 2.28125 -11.648438 2.28125 -15.078125 C 2.28125 -19.722656 4.28125 -23.757812 8.28125 -27.1875 C 12.28125 -30.625 18.96875 -32.910156 28.34375 -34.046875 L 42.625 -35.765625 C 44.070312 -35.921875 45.210938 -36.394531 46.046875 -37.1875 C 46.890625 -37.988281 47.3125 -39 47.3125 -40.21875 C 47.3125 -43.800781 45.75 -46.675781 42.625 -48.84375 C 39.5 -51.019531 35.421875 -52.109375 30.390625 -52.109375 C 26.816406 -52.109375 23.617188 -51.441406 20.796875 -50.109375 C 17.972656 -48.773438 15.742188 -47.039062 14.109375 -44.90625 C 12.472656 -42.769531 11.578125 -40.5625 11.421875 -38.28125 L 3.546875 -41.59375 C 3.921875 -44.789062 5.304688 -47.78125 7.703125 -50.5625 C 10.109375 -53.34375 13.3125 -55.609375 17.3125 -57.359375 C 21.3125 -59.109375 25.785156 -59.984375 30.734375 -59.984375 C 35.691406 -59.984375 40.054688 -59.125 43.828125 -57.40625 C 47.597656 -55.695312 50.546875 -53.257812 52.671875 -50.09375 C 54.804688 -46.9375 55.875 -43.1875 55.875 -38.84375 L 55.875 -9.59375 C 55.875 -8.457031 56.160156 -7.523438 56.734375 -6.796875 C 57.304688 -6.078125 58.050781 -5.71875 58.96875 -5.71875 C 60.71875 -5.71875 62.273438 -6.859375 63.640625 -9.140625 L 68.328125 -3.65625 C 67.109375 -1.90625 65.410156 -0.476562 63.234375 0.625 C 61.066406 1.726562 58.878906 2.28125 56.671875 2.28125 C 53.859375 2.28125 51.613281 1.390625 49.9375 -0.390625 C 48.257812 -2.179688 47.34375 -4.375 47.1875 -6.96875 L 47.078125 -9.59375 L 46.96875 -9.59375 C 44.90625 -5.9375 41.953125 -3.039062 38.109375 -0.90625 C 34.265625 1.21875 29.75 2.28125 24.5625 2.28125 Z M 26.046875 -5.59375 C 30.085938 -5.59375 33.6875 -6.410156 36.84375 -8.046875 C 40.007812 -9.691406 42.503906 -11.941406 44.328125 -14.796875 C 46.160156 -17.648438 47.078125 -20.945312 47.078125 -24.6875 L 47.078125 -28.796875 L 29.25 -26.625 C 22.320312 -25.78125 17.539062 -24.332031 14.90625 -22.28125 C 12.28125 -20.226562 10.96875 -17.867188 10.96875 -15.203125 C 10.96875 -12.304688 12.375 -9.976562 15.1875 -8.21875 C 18.007812 -6.46875 21.628906 -5.59375 26.046875 -5.59375 Z M 26.046875 -5.59375 "/></g></g></g><g fill="#3b3030" fill-opacity="1"><g transform="translate(590.828929, 661.506024)"><g><path d="M 36.671875 -59.984375 C 43.304688 -59.984375 48.523438 -57.984375 52.328125 -53.984375 C 56.140625 -49.984375 58.046875 -44.40625 58.046875 -37.25 L 58.046875 0 L 49.25 0 L 49.25 -36.34375 C 49.25 -41.289062 47.894531 -45.210938 45.1875 -48.109375 C 42.488281 -51.003906 38.851562 -52.453125 34.28125 -52.453125 C 30.394531 -52.453125 26.96875 -51.613281 24 -49.9375 C 21.03125 -48.257812 18.6875 -45.929688 16.96875 -42.953125 C 15.25 -39.984375 14.390625 -36.519531 14.390625 -32.5625 L 14.390625 0 L 5.71875 0 L 5.71875 -57.703125 L 13.59375 -57.703125 L 14.390625 -49.140625 L 14.515625 -49.140625 C 16.953125 -52.640625 20 -55.320312 23.65625 -57.1875 C 27.3125 -59.050781 31.648438 -59.984375 36.671875 -59.984375 Z M 36.671875 -59.984375 "/></g></g></g><g fill="#3b3030" fill-opacity="1"><g transform="translate(656.1803, 661.506024)"><g/></g></g><g fill="#3b3030" fill-opacity="1"><g transform="translate(689.427494, 661.506024)"><g><path d="M 6.859375 0 L 6.859375 -80.5625 L 16.34375 -80.5625 L 16.34375 -43.078125 L 16.453125 -43.078125 L 50.390625 -80.5625 L 62.046875 -80.5625 L 33.015625 -48.5625 L 64.109375 0 L 52.90625 0 L 26.859375 -41.828125 L 16.34375 -30.734375 L 16.34375 0 Z M 6.859375 0 "/></g></g></g><g fill="#3b3030" fill-opacity="1"><g transform="translate(756.835378, 661.506024)"><g><path d="M 35.3125 2.28125 C 29.21875 2.28125 23.75 0.910156 18.90625 -1.828125 C 14.070312 -4.566406 10.28125 -8.335938 7.53125 -13.140625 C 4.789062 -17.941406 3.421875 -23.390625 3.421875 -29.484375 C 3.421875 -35.421875 4.675781 -40.675781 7.1875 -45.25 C 9.707031 -49.820312 13.195312 -53.421875 17.65625 -56.046875 C 22.113281 -58.671875 27.195312 -59.984375 32.90625 -59.984375 C 38.539062 -59.984375 43.453125 -58.671875 47.640625 -56.046875 C 51.835938 -53.421875 55.113281 -49.800781 57.46875 -45.1875 C 59.832031 -40.582031 61.050781 -35.304688 61.125 -29.359375 C 61.125 -28.828125 61.125 -28.273438 61.125 -27.703125 C 61.125 -27.140625 61.085938 -26.550781 61.015625 -25.9375 L 12.453125 -25.9375 C 12.910156 -21.976562 14.164062 -18.453125 16.21875 -15.359375 C 18.28125 -12.273438 20.96875 -9.875 24.28125 -8.15625 C 27.59375 -6.445312 31.304688 -5.59375 35.421875 -5.59375 C 39.910156 -5.59375 43.945312 -6.640625 47.53125 -8.734375 C 51.113281 -10.835938 53.703125 -13.445312 55.296875 -16.5625 L 62.84375 -13.484375 C 61.625 -10.429688 59.660156 -7.707031 56.953125 -5.3125 C 54.253906 -2.914062 51.054688 -1.050781 47.359375 0.28125 C 43.671875 1.613281 39.65625 2.28125 35.3125 2.28125 Z M 12.5625 -33.59375 L 51.875 -33.59375 C 51.34375 -39.457031 49.34375 -43.988281 45.875 -47.1875 C 42.40625 -50.382812 38.046875 -51.984375 32.796875 -51.984375 C 27.460938 -51.984375 22.96875 -50.289062 19.3125 -46.90625 C 15.65625 -43.519531 13.40625 -39.082031 12.5625 -33.59375 Z M 12.5625 -33.59375 "/></g></g></g><g fill="#3b3030" fill-opacity="1"><g transform="translate(824.585947, 661.506024)"><g><path d="M 5.71875 0 L 5.71875 -83.984375 L 14.390625 -83.984375 L 14.390625 -31.65625 L 14.515625 -31.65625 L 38.96875 -57.703125 L 50.5 -57.703125 L 28.6875 -34.96875 L 52.453125 0 L 41.9375 0 L 22.734375 -28.6875 L 14.390625 -20 L 14.390625 0 Z M 5.71875 0 "/></g></g></g><g fill="#3b3030" fill-opacity="1"><g transform="translate(879.197836, 661.506024)"><g><path d="M 35.3125 2.28125 C 29.21875 2.28125 23.75 0.910156 18.90625 -1.828125 C 14.070312 -4.566406 10.28125 -8.335938 7.53125 -13.140625 C 4.789062 -17.941406 3.421875 -23.390625 3.421875 -29.484375 C 3.421875 -35.421875 4.675781 -40.675781 7.1875 -45.25 C 9.707031 -49.820312 13.195312 -53.421875 17.65625 -56.046875 C 22.113281 -58.671875 27.195312 -59.984375 32.90625 -59.984375 C 38.539062 -59.984375 43.453125 -58.671875 47.640625 -56.046875 C 51.835938 -53.421875 55.113281 -49.800781 57.46875 -45.1875 C 59.832031 -40.582031 61.050781 -35.304688 61.125 -29.359375 C 61.125 -28.828125 61.125 -28.273438 61.125 -27.703125 C 61.125 -27.140625 61.085938 -26.550781 61.015625 -25.9375 L 12.453125 -25.9375 C 12.910156 -21.976562 14.164062 -18.453125 16.21875 -15.359375 C 18.28125 -12.273438 20.96875 -9.875 24.28125 -8.15625 C 27.59375 -6.445312 31.304688 -5.59375 35.421875 -5.59375 C 39.910156 -5.59375 43.945312 -6.640625 47.53125 -8.734375 C 51.113281 -10.835938 53.703125 -13.445312 55.296875 -16.5625 L 62.84375 -13.484375 C 61.625 -10.429688 59.660156 -7.707031 56.953125 -5.3125 C 54.253906 -2.914062 51.054688 -1.050781 47.359375 0.28125 C 43.671875 1.613281 39.65625 2.28125 35.3125 2.28125 Z M 12.5625 -33.59375 L 51.875 -33.59375 C 51.34375 -39.457031 49.34375 -43.988281 45.875 -47.1875 C 42.40625 -50.382812 38.046875 -51.984375 32.796875 -51.984375 C 27.460938 -51.984375 22.96875 -50.289062 19.3125 -46.90625 C 15.65625 -43.519531 13.40625 -39.082031 12.5625 -33.59375 Z M 12.5625 -33.59375 "/></g></g></g><g fill="#3b3030" fill-opacity="1"><g transform="translate(946.948446, 661.506024)"><g><path d="M 30.734375 -60.109375 C 35.691406 -60.109375 39.75 -58.546875 42.90625 -55.421875 C 46.070312 -52.296875 47.921875 -47.835938 48.453125 -42.046875 L 40.90625 -39.53125 C 40.445312 -43.570312 39.207031 -46.65625 37.1875 -48.78125 C 35.175781 -50.914062 32.609375 -51.984375 29.484375 -51.984375 C 24.835938 -51.984375 21.160156 -50.191406 18.453125 -46.609375 C 15.742188 -43.035156 14.390625 -38.085938 14.390625 -31.765625 L 14.390625 0 L 5.71875 0 L 5.71875 -57.703125 L 13.140625 -57.703125 L 13.9375 -48.671875 L 14.046875 -48.671875 C 15.648438 -52.179688 17.914062 -54.960938 20.84375 -57.015625 C 23.78125 -59.078125 27.078125 -60.109375 30.734375 -60.109375 Z M 30.734375 -60.109375 "/></g></g></g><g fill="#3b3030" fill-opacity="1"><g transform="translate(999.846627, 661.506024)"><g><path d="M 10.96875 -68.90625 C 9.0625 -68.90625 7.519531 -69.492188 6.34375 -70.671875 C 5.164062 -71.847656 4.578125 -73.390625 4.578125 -75.296875 C 4.578125 -77.203125 5.164062 -78.722656 6.34375 -79.859375 C 7.519531 -81.003906 9.0625 -81.578125 10.96875 -81.578125 C 12.875 -81.578125 14.4375 -81.003906 15.65625 -79.859375 C 16.875 -78.722656 17.484375 -77.203125 17.484375 -75.296875 C 17.484375 -73.390625 16.875 -71.847656 15.65625 -70.671875 C 14.4375 -69.492188 12.875 -68.90625 10.96875 -68.90625 Z M 6.515625 0 L 6.515625 -57.703125 L 15.203125 -57.703125 L 15.203125 0 Z M 6.515625 0 "/></g></g></g><g fill="#3b3030" fill-opacity="1"><g transform="translate(1024.068127, 661.506024)"><g><path d="M 36.671875 -59.984375 C 43.304688 -59.984375 48.523438 -57.984375 52.328125 -53.984375 C 56.140625 -49.984375 58.046875 -44.40625 58.046875 -37.25 L 58.046875 0 L 49.25 0 L 49.25 -36.34375 C 49.25 -41.289062 47.894531 -45.210938 45.1875 -48.109375 C 42.488281 -51.003906 38.851562 -52.453125 34.28125 -52.453125 C 30.394531 -52.453125 26.96875 -51.613281 24 -49.9375 C 21.03125 -48.257812 18.6875 -45.929688 16.96875 -42.953125 C 15.25 -39.984375 14.390625 -36.519531 14.390625 -32.5625 L 14.390625 0 L 5.71875 0 L 5.71875 -57.703125 L 13.59375 -57.703125 L 14.390625 -49.140625 L 14.515625 -49.140625 C 16.953125 -52.640625 20 -55.320312 23.65625 -57.1875 C 27.3125 -59.050781 31.648438 -59.984375 36.671875 -59.984375 Z M 36.671875 -59.984375 "/></g></g></g><g fill="#3b3030" fill-opacity="1"><g transform="translate(1089.419498, 661.506024)"><g><path d="M 30.734375 26.28125 C 26.242188 26.28125 21.898438 25.628906 17.703125 24.328125 C 13.515625 23.035156 9.800781 21.226562 6.5625 18.90625 C 3.332031 16.582031 0.765625 13.898438 -1.140625 10.859375 L 5.59375 5.140625 C 7.882812 9.097656 11.296875 12.296875 15.828125 14.734375 C 20.359375 17.171875 25.253906 18.390625 30.515625 18.390625 C 35.304688 18.390625 39.472656 17.4375 43.015625 15.53125 C 46.554688 13.632812 49.316406 10.972656 51.296875 7.546875 C 53.285156 4.117188 54.28125 0.078125 54.28125 -4.578125 L 54.28125 -10.96875 L 54.15625 -10.96875 C 51.875 -7.382812 48.675781 -4.546875 44.5625 -2.453125 C 40.445312 -0.359375 36.375 0.6875 32.34375 0.6875 C 26.695312 0.6875 21.703125 -0.566406 17.359375 -3.078125 C 13.023438 -5.597656 9.640625 -9.125 7.203125 -13.65625 C 4.765625 -18.1875 3.546875 -23.382812 3.546875 -29.25 C 3.546875 -35.34375 4.765625 -40.675781 7.203125 -45.25 C 9.640625 -49.820312 13.023438 -53.382812 17.359375 -55.9375 C 21.703125 -58.488281 26.695312 -59.765625 32.34375 -59.765625 C 36.53125 -59.765625 40.640625 -58.695312 44.671875 -56.5625 C 48.710938 -54.425781 51.914062 -51.679688 54.28125 -48.328125 L 54.390625 -48.328125 L 55.296875 -57.703125 L 63.078125 -57.703125 L 63.078125 -4.578125 C 63.078125 1.671875 61.722656 7.097656 59.015625 11.703125 C 56.316406 16.316406 52.546875 19.898438 47.703125 22.453125 C 42.867188 25.003906 37.210938 26.28125 30.734375 26.28125 Z M 33.484375 -7.203125 C 37.671875 -7.203125 41.34375 -8.171875 44.5 -10.109375 C 47.664062 -12.054688 50.144531 -14.6875 51.9375 -18 C 53.726562 -21.3125 54.625 -25.0625 54.625 -29.25 C 54.625 -33.59375 53.726562 -37.476562 51.9375 -40.90625 C 50.144531 -44.332031 47.664062 -47.035156 44.5 -49.015625 C 41.34375 -50.992188 37.671875 -51.984375 33.484375 -51.984375 C 29.285156 -51.984375 25.585938 -51.03125 22.390625 -49.125 C 19.191406 -47.226562 16.695312 -44.566406 14.90625 -41.140625 C 13.113281 -37.710938 12.21875 -33.75 12.21875 -29.25 C 12.21875 -24.90625 13.113281 -21.078125 14.90625 -17.765625 C 16.695312 -14.453125 19.191406 -11.863281 22.390625 -10 C 25.585938 -8.132812 29.285156 -7.203125 33.484375 -7.203125 Z M 33.484375 -7.203125 "/></g></g></g><g fill="#3b3030" fill-opacity="1"><g transform="translate(1160.369148, 661.506024)"><g><path d="M 24.5625 2.28125 C 20.21875 2.28125 16.367188 1.554688 13.015625 0.109375 C 9.671875 -1.335938 7.046875 -3.375 5.140625 -6 C 3.234375 -8.625 2.28125 -11.648438 2.28125 -15.078125 C 2.28125 -19.722656 4.28125 -23.757812 8.28125 -27.1875 C 12.28125 -30.625 18.96875 -32.910156 28.34375 -34.046875 L 42.625 -35.765625 C 44.070312 -35.921875 45.210938 -36.394531 46.046875 -37.1875 C 46.890625 -37.988281 47.3125 -39 47.3125 -40.21875 C 47.3125 -43.800781 45.75 -46.675781 42.625 -48.84375 C 39.5 -51.019531 35.421875 -52.109375 30.390625 -52.109375 C 26.816406 -52.109375 23.617188 -51.441406 20.796875 -50.109375 C 17.972656 -48.773438 15.742188 -47.039062 14.109375 -44.90625 C 12.472656 -42.769531 11.578125 -40.5625 11.421875 -38.28125 L 3.546875 -41.59375 C 3.921875 -44.789062 5.304688 -47.78125 7.703125 -50.5625 C 10.109375 -53.34375 13.3125 -55.609375 17.3125 -57.359375 C 21.3125 -59.109375 25.785156 -59.984375 30.734375 -59.984375 C 35.691406 -59.984375 40.054688 -59.125 43.828125 -57.40625 C 47.597656 -55.695312 50.546875 -53.257812 52.671875 -50.09375 C 54.804688 -46.9375 55.875 -43.1875 55.875 -38.84375 L 55.875 -9.59375 C 55.875 -8.457031 56.160156 -7.523438 56.734375 -6.796875 C 57.304688 -6.078125 58.050781 -5.71875 58.96875 -5.71875 C 60.71875 -5.71875 62.273438 -6.859375 63.640625 -9.140625 L 68.328125 -3.65625 C 67.109375 -1.90625 65.410156 -0.476562 63.234375 0.625 C 61.066406 1.726562 58.878906 2.28125 56.671875 2.28125 C 53.859375 2.28125 51.613281 1.390625 49.9375 -0.390625 C 48.257812 -2.179688 47.34375 -4.375 47.1875 -6.96875 L 47.078125 -9.59375 L 46.96875 -9.59375 C 44.90625 -5.9375 41.953125 -3.039062 38.109375 -0.90625 C 34.265625 1.21875 29.75 2.28125 24.5625 2.28125 Z M 26.046875 -5.59375 C 30.085938 -5.59375 33.6875 -6.410156 36.84375 -8.046875 C 40.007812 -9.691406 42.503906 -11.941406 44.328125 -14.796875 C 46.160156 -17.648438 47.078125 -20.945312 47.078125 -24.6875 L 47.078125 -28.796875 L 29.25 -26.625 C 22.320312 -25.78125 17.539062 -24.332031 14.90625 -22.28125 C 12.28125 -20.226562 10.96875 -17.867188 10.96875 -15.203125 C 10.96875 -12.304688 12.375 -9.976562 15.1875 -8.21875 C 18.007812 -6.46875 21.628906 -5.59375 26.046875 -5.59375 Z M 26.046875 -5.59375 "/></g></g></g><g fill="#3b3030" fill-opacity="1"><g transform="translate(1230.861803, 661.506024)"><g><path d="M 36.671875 -59.984375 C 43.304688 -59.984375 48.523438 -57.984375 52.328125 -53.984375 C 56.140625 -49.984375 58.046875 -44.40625 58.046875 -37.25 L 58.046875 0 L 49.25 0 L 49.25 -36.34375 C 49.25 -41.289062 47.894531 -45.210938 45.1875 -48.109375 C 42.488281 -51.003906 38.851562 -52.453125 34.28125 -52.453125 C 30.394531 -52.453125 26.96875 -51.613281 24 -49.9375 C 21.03125 -48.257812 18.6875 -45.929688 16.96875 -42.953125 C 15.25 -39.984375 14.390625 -36.519531 14.390625 -32.5625 L 14.390625 0 L 5.71875 0 L 5.71875 -57.703125 L 13.59375 -57.703125 L 14.390625 -49.140625 L 14.515625 -49.140625 C 16.953125 -52.640625 20 -55.320312 23.65625 -57.1875 C 27.3125 -59.050781 31.648438 -59.984375 36.671875 -59.984375 Z M 36.671875 -59.984375 "/></g></g></g><g fill="#3b3030" fill-opacity="1"><g transform="translate(1296.213174, 661.506024)"><g/></g></g><g fill="#3b3030" fill-opacity="1"><g transform="translate(1329.460368, 661.506024)"><g><path d="M 46.734375 2.859375 C 38.046875 2.859375 30.503906 1.085938 24.109375 -2.453125 C 17.710938 -5.992188 12.757812 -10.984375 9.25 -17.421875 C 5.75 -23.859375 4 -31.457031 4 -40.21875 C 4 -49.050781 5.632812 -56.6875 8.90625 -63.125 C 12.1875 -69.5625 16.832031 -74.550781 22.84375 -78.09375 C 28.863281 -81.632812 35.988281 -83.40625 44.21875 -83.40625 C 50.082031 -83.40625 55.394531 -82.242188 60.15625 -79.921875 C 64.914062 -77.597656 68.929688 -74.34375 72.203125 -70.15625 C 75.484375 -65.96875 77.734375 -60.976562 78.953125 -55.1875 L 69.9375 -53.015625 C 68.71875 -59.796875 65.78125 -65.144531 61.125 -69.0625 C 56.476562 -72.988281 50.84375 -74.953125 44.21875 -74.953125 C 37.96875 -74.953125 32.539062 -73.539062 27.9375 -70.71875 C 23.332031 -67.90625 19.769531 -63.890625 17.25 -58.671875 C 14.738281 -53.453125 13.484375 -47.300781 13.484375 -40.21875 C 13.554688 -33.207031 14.941406 -27.09375 17.640625 -21.875 C 20.347656 -16.65625 24.195312 -12.632812 29.1875 -9.8125 C 34.175781 -7 40.023438 -5.59375 46.734375 -5.59375 C 52.140625 -5.59375 56.972656 -6.675781 61.234375 -8.84375 C 65.503906 -11.019531 69.007812 -14.085938 71.75 -18.046875 C 74.5 -22.015625 76.253906 -26.664062 77.015625 -32 L 86.15625 -29.703125 C 85.164062 -23.078125 82.878906 -17.328125 79.296875 -12.453125 C 75.722656 -7.578125 71.15625 -3.804688 65.59375 -1.140625 C 60.03125 1.523438 53.742188 2.859375 46.734375 2.859375 Z M 46.734375 2.859375 "/></g></g></g><g fill="#3b3030" fill-opacity="1"><g transform="translate(1420.061006, 661.506024)"><g><path d="M 10.96875 -68.90625 C 9.0625 -68.90625 7.519531 -69.492188 6.34375 -70.671875 C 5.164062 -71.847656 4.578125 -73.390625 4.578125 -75.296875 C 4.578125 -77.203125 5.164062 -78.722656 6.34375 -79.859375 C 7.519531 -81.003906 9.0625 -81.578125 10.96875 -81.578125 C 12.875 -81.578125 14.4375 -81.003906 15.65625 -79.859375 C 16.875 -78.722656 17.484375 -77.203125 17.484375 -75.296875 C 17.484375 -73.390625 16.875 -71.847656 15.65625 -70.671875 C 14.4375 -69.492188 12.875 -68.90625 10.96875 -68.90625 Z M 6.515625 0 L 6.515625 -57.703125 L 15.203125 -57.703125 L 15.203125 0 Z M 6.515625 0 "/></g></g></g><g fill="#3b3030" fill-opacity="1"><g transform="translate(1444.282507, 661.506024)"><g><path d="M 5.71875 0 L 5.71875 -83.984375 L 14.390625 -83.984375 L 14.390625 0 Z M 5.71875 0 "/></g></g></g><g fill="#3b3030" fill-opacity="1"><g transform="translate(1466.56168, 661.506024)"><g><path d="M 24.5625 2.28125 C 20.21875 2.28125 16.367188 1.554688 13.015625 0.109375 C 9.671875 -1.335938 7.046875 -3.375 5.140625 -6 C 3.234375 -8.625 2.28125 -11.648438 2.28125 -15.078125 C 2.28125 -19.722656 4.28125 -23.757812 8.28125 -27.1875 C 12.28125 -30.625 18.96875 -32.910156 28.34375 -34.046875 L 42.625 -35.765625 C 44.070312 -35.921875 45.210938 -36.394531 46.046875 -37.1875 C 46.890625 -37.988281 47.3125 -39 47.3125 -40.21875 C 47.3125 -43.800781 45.75 -46.675781 42.625 -48.84375 C 39.5 -51.019531 35.421875 -52.109375 30.390625 -52.109375 C 26.816406 -52.109375 23.617188 -51.441406 20.796875 -50.109375 C 17.972656 -48.773438 15.742188 -47.039062 14.109375 -44.90625 C 12.472656 -42.769531 11.578125 -40.5625 11.421875 -38.28125 L 3.546875 -41.59375 C 3.921875 -44.789062 5.304688 -47.78125 7.703125 -50.5625 C 10.109375 -53.34375 13.3125 -55.609375 17.3125 -57.359375 C 21.3125 -59.109375 25.785156 -59.984375 30.734375 -59.984375 C 35.691406 -59.984375 40.054688 -59.125 43.828125 -57.40625 C 47.597656 -55.695312 50.546875 -53.257812 52.671875 -50.09375 C 54.804688 -46.9375 55.875 -43.1875 55.875 -38.84375 L 55.875 -9.59375 C 55.875 -8.457031 56.160156 -7.523438 56.734375 -6.796875 C 57.304688 -6.078125 58.050781 -5.71875 58.96875 -5.71875 C 60.71875 -5.71875 62.273438 -6.859375 63.640625 -9.140625 L 68.328125 -3.65625 C 67.109375 -1.90625 65.410156 -0.476562 63.234375 0.625 C 61.066406 1.726562 58.878906 2.28125 56.671875 2.28125 C 53.859375 2.28125 51.613281 1.390625 49.9375 -0.390625 C 48.257812 -2.179688 47.34375 -4.375 47.1875 -6.96875 L 47.078125 -9.59375 L 46.96875 -9.59375 C 44.90625 -5.9375 41.953125 -3.039062 38.109375 -0.90625 C 34.265625 1.21875 29.75 2.28125 24.5625 2.28125 Z M 26.046875 -5.59375 C 30.085938 -5.59375 33.6875 -6.410156 36.84375 -8.046875 C 40.007812 -9.691406 42.503906 -11.941406 44.328125 -14.796875 C 46.160156 -17.648438 47.078125 -20.945312 47.078125 -24.6875 L 47.078125 -28.796875 L 29.25 -26.625 C 22.320312 -25.78125 17.539062 -24.332031 14.90625 -22.28125 C 12.28125 -20.226562 10.96875 -17.867188 10.96875 -15.203125 C 10.96875 -12.304688 12.375 -9.976562 15.1875 -8.21875 C 18.007812 -6.46875 21.628906 -5.59375 26.046875 -5.59375 Z M 26.046875 -5.59375 "/></g></g></g><g fill="#3b3030" fill-opacity="1"><g transform="translate(1537.054336, 661.506024)"><g><path d="M 33.9375 2.28125 C 28 2.28125 22.722656 0.945312 18.109375 -1.71875 C 13.503906 -4.382812 9.90625 -8.054688 7.3125 -12.734375 C 4.71875 -17.421875 3.421875 -22.773438 3.421875 -28.796875 C 3.421875 -34.890625 4.640625 -40.273438 7.078125 -44.953125 C 9.515625 -49.640625 12.90625 -53.316406 17.25 -55.984375 C 21.59375 -58.648438 26.582031 -59.984375 32.21875 -59.984375 C 36.5625 -59.984375 40.5625 -59.144531 44.21875 -57.46875 C 47.875 -55.800781 50.976562 -53.476562 53.53125 -50.5 C 56.082031 -47.53125 57.816406 -44.101562 58.734375 -40.21875 L 50.28125 -38.28125 C 49.132812 -42.46875 46.90625 -45.796875 43.59375 -48.265625 C 40.28125 -50.742188 36.488281 -51.984375 32.21875 -51.984375 C 28.414062 -51.984375 24.988281 -51.007812 21.9375 -49.0625 C 18.894531 -47.125 16.492188 -44.421875 14.734375 -40.953125 C 12.984375 -37.492188 12.109375 -33.441406 12.109375 -28.796875 C 12.109375 -24.222656 13.0625 -20.179688 14.96875 -16.671875 C 16.875 -13.171875 19.460938 -10.445312 22.734375 -8.5 C 26.015625 -6.5625 29.75 -5.59375 33.9375 -5.59375 C 37.4375 -5.59375 40.648438 -6.296875 43.578125 -7.703125 C 46.515625 -9.117188 48.972656 -11.082031 50.953125 -13.59375 C 52.941406 -16.113281 54.203125 -19.007812 54.734375 -22.28125 L 63.1875 -20.5625 C 62.5 -16.144531 60.765625 -12.222656 57.984375 -8.796875 C 55.203125 -5.367188 51.734375 -2.664062 47.578125 -0.6875 C 43.429688 1.289062 38.882812 2.28125 33.9375 2.28125 Z M 33.9375 2.28125 "/></g></g></g><g fill="#3b3030" fill-opacity="1"><g transform="translate(1604.690758, 661.506024)"><g><path d="M 24.5625 2.28125 C 20.21875 2.28125 16.367188 1.554688 13.015625 0.109375 C 9.671875 -1.335938 7.046875 -3.375 5.140625 -6 C 3.234375 -8.625 2.28125 -11.648438 2.28125 -15.078125 C 2.28125 -19.722656 4.28125 -23.757812 8.28125 -27.1875 C 12.28125 -30.625 18.96875 -32.910156 28.34375 -34.046875 L 42.625 -35.765625 C 44.070312 -35.921875 45.210938 -36.394531 46.046875 -37.1875 C 46.890625 -37.988281 47.3125 -39 47.3125 -40.21875 C 47.3125 -43.800781 45.75 -46.675781 42.625 -48.84375 C 39.5 -51.019531 35.421875 -52.109375 30.390625 -52.109375 C 26.816406 -52.109375 23.617188 -51.441406 20.796875 -50.109375 C 17.972656 -48.773438 15.742188 -47.039062 14.109375 -44.90625 C 12.472656 -42.769531 11.578125 -40.5625 11.421875 -38.28125 L 3.546875 -41.59375 C 3.921875 -44.789062 5.304688 -47.78125 7.703125 -50.5625 C 10.109375 -53.34375 13.3125 -55.609375 17.3125 -57.359375 C 21.3125 -59.109375 25.785156 -59.984375 30.734375 -59.984375 C 35.691406 -59.984375 40.054688 -59.125 43.828125 -57.40625 C 47.597656 -55.695312 50.546875 -53.257812 52.671875 -50.09375 C 54.804688 -46.9375 55.875 -43.1875 55.875 -38.84375 L 55.875 -9.59375 C 55.875 -8.457031 56.160156 -7.523438 56.734375 -6.796875 C 57.304688 -6.078125 58.050781 -5.71875 58.96875 -5.71875 C 60.71875 -5.71875 62.273438 -6.859375 63.640625 -9.140625 L 68.328125 -3.65625 C 67.109375 -1.90625 65.410156 -0.476562 63.234375 0.625 C 61.066406 1.726562 58.878906 2.28125 56.671875 2.28125 C 53.859375 2.28125 51.613281 1.390625 49.9375 -0.390625 C 48.257812 -2.179688 47.34375 -4.375 47.1875 -6.96875 L 47.078125 -9.59375 L 46.96875 -9.59375 C 44.90625 -5.9375 41.953125 -3.039062 38.109375 -0.90625 C 34.265625 1.21875 29.75 2.28125 24.5625 2.28125 Z M 26.046875 -5.59375 C 30.085938 -5.59375 33.6875 -6.410156 36.84375 -8.046875 C 40.007812 -9.691406 42.503906 -11.941406 44.328125 -14.796875 C 46.160156 -17.648438 47.078125 -20.945312 47.078125 -24.6875 L 47.078125 -28.796875 L 29.25 -26.625 C 22.320312 -25.78125 17.539062 -24.332031 14.90625 -22.28125 C 12.28125 -20.226562 10.96875 -17.867188 10.96875 -15.203125 C 10.96875 -12.304688 12.375 -9.976562 15.1875 -8.21875 C 18.007812 -6.46875 21.628906 -5.59375 26.046875 -5.59375 Z M 26.046875 -5.59375 "/></g></g></g><g fill="#3b3030" fill-opacity="1"><g transform="translate(1675.183414, 661.506024)"><g><path d="M 5.71875 24 L 5.71875 -57.703125 L 13.25 -57.703125 L 14.171875 -47.765625 L 14.28125 -47.765625 C 16.71875 -51.566406 19.859375 -54.550781 23.703125 -56.71875 C 27.554688 -58.894531 31.921875 -59.984375 36.796875 -59.984375 C 42.429688 -59.984375 47.457031 -58.628906 51.875 -55.921875 C 56.289062 -53.222656 59.773438 -49.53125 62.328125 -44.84375 C 64.878906 -40.164062 66.15625 -34.816406 66.15625 -28.796875 C 66.15625 -22.847656 64.878906 -17.53125 62.328125 -12.84375 C 59.773438 -8.164062 56.304688 -4.472656 51.921875 -1.765625 C 47.546875 0.929688 42.539062 2.28125 36.90625 2.28125 C 32.101562 2.28125 27.796875 1.234375 23.984375 -0.859375 C 20.179688 -2.953125 17.023438 -5.863281 14.515625 -9.59375 L 14.390625 -9.59375 L 14.390625 24 Z M 35.765625 -5.71875 C 39.953125 -5.71875 43.664062 -6.742188 46.90625 -8.796875 C 50.144531 -10.859375 52.695312 -13.617188 54.5625 -17.078125 C 56.425781 -20.546875 57.359375 -24.453125 57.359375 -28.796875 C 57.359375 -33.285156 56.425781 -37.265625 54.5625 -40.734375 C 52.695312 -44.203125 50.144531 -46.941406 46.90625 -48.953125 C 43.664062 -50.972656 39.953125 -51.984375 35.765625 -51.984375 C 31.648438 -51.984375 27.953125 -50.957031 24.671875 -48.90625 C 21.398438 -46.851562 18.832031 -44.09375 16.96875 -40.625 C 15.101562 -37.15625 14.171875 -33.210938 14.171875 -28.796875 C 14.171875 -24.453125 15.101562 -20.546875 16.96875 -17.078125 C 18.832031 -13.617188 21.398438 -10.859375 24.671875 -8.796875 C 27.953125 -6.742188 31.648438 -5.71875 35.765625 -5.71875 Z M 35.765625 -5.71875 "/></g></g></g></svg>